# Blender v2.90.1 OBJ File: ''
# www.blender.org
mtllib A.mtl
o Текст
v 0.242763 0.070000 0.000000
v 0.151763 0.070000 -0.201000
v -0.138237 0.070000 -0.201000
v -0.224237 0.070000 0.000000
v -0.324237 0.070000 0.000000
v -0.031237 0.070000 -0.686000
v 0.037763 0.070000 -0.686000
v 0.342763 0.070000 0.000000
v 0.111763 0.070000 -0.289000
v 0.001763 0.070000 -0.536000
v -0.100237 0.070000 -0.289000
v 0.242763 -0.070000 0.000000
v 0.151763 -0.070000 -0.201000
v -0.138237 -0.070000 -0.201000
v -0.224237 -0.070000 0.000000
v -0.324237 -0.070000 0.000000
v -0.031237 -0.070000 -0.686000
v 0.037763 -0.070000 -0.686000
v 0.342763 -0.070000 0.000000
v 0.111763 -0.070000 -0.289000
v 0.001763 -0.070000 -0.536000
v -0.100237 -0.070000 -0.289000
v 0.242763 -0.070000 0.000000
v 0.242763 0.070000 0.000000
v 0.151763 -0.070000 -0.201000
v 0.151763 0.070000 -0.201000
v -0.138237 -0.070000 -0.201000
v -0.138237 0.070000 -0.201000
v -0.224237 -0.070000 0.000000
v -0.224237 0.070000 0.000000
v -0.324237 -0.070000 0.000000
v -0.324237 0.070000 0.000000
v -0.031237 -0.070000 -0.686000
v -0.031237 0.070000 -0.686000
v 0.037763 -0.070000 -0.686000
v 0.037763 0.070000 -0.686000
v 0.342763 -0.070000 0.000000
v 0.342763 0.070000 0.000000
v 0.111763 -0.070000 -0.289000
v 0.111763 0.070000 -0.289000
v 0.001763 -0.070000 -0.536000
v 0.001763 0.070000 -0.536000
v -0.100237 -0.070000 -0.289000
v -0.100237 0.070000 -0.289000
vn 0.0000 1.0000 0.0000
vn 0.0000 -1.0000 0.0000
vn -0.5420 0.0000 0.8404
vn 0.5507 0.0000 0.8347
vn -0.8345 0.0000 0.5510
vn -0.5510 0.0000 -0.8345
vn 0.5448 0.0000 -0.8385
vn 0.8385 0.0000 0.5448
vn 0.0137 0.0000 0.9999
vn -0.8387 0.0000 -0.5446
vn 0.8311 0.0000 -0.5560
usemtl None
s off
f 5//1 7//1 6//1
f 5//1 10//1 7//1
f 10//1 8//1 7//1
f 5//1 11//1 10//1
f 9//1 8//1 10//1
f 5//1 3//1 11//1
f 3//1 9//1 11//1
f 3//1 2//1 9//1
f 2//1 8//1 9//1
f 5//1 4//1 3//1
f 1//1 8//1 2//1
f 18//2 16//2 17//2
f 21//2 16//2 18//2
f 19//2 21//2 18//2
f 22//2 16//2 21//2
f 19//2 20//2 21//2
f 14//2 16//2 22//2
f 20//2 14//2 22//2
f 13//2 14//2 20//2
f 19//2 13//2 20//2
f 15//2 16//2 14//2
f 19//2 12//2 13//2
s 1
f 26//3 23//3 24//3
f 28//4 25//3 26//3
f 30//4 27//4 28//4
f 32//5 29//4 30//4
f 34//6 31//5 32//5
f 36//7 33//6 34//6
f 38//8 35//7 36//7
f 24//3 37//8 38//8
f 42//9 39//10 40//10
f 44//11 41//9 42//9
f 40//10 43//11 44//11
f 26//3 25//3 23//3
f 28//4 27//4 25//3
f 30//4 29//4 27//4
f 32//5 31//5 29//4
f 34//6 33//6 31//5
f 36//7 35//7 33//6
f 38//8 37//8 35//7
f 24//3 23//3 37//8
f 42//9 41//9 39//10
f 44//11 43//11 41//9
f 40//10 39//10 43//11
